# xmcd
#
# Track frame offsets:
#	150
#	23060
#	39572
#	63045
#	85552
#	108210
#
# Disc length: 1654 seconds
#
# Revision: 0
# Processed by: cddbd v1.5.2PL0 Copyright (c) Steve Scherf et al.
# Submitted via: EasyCDDAExtractor 15.2.0.1
#
DISCID=37067406
DTITLE=Terezinha e Lindalva - Olha o Palavrão
DYEAR=1900
DGENRE=
TTITLE0=Baina Sulá
TTITLE1=Vinte Meninas
TTITLE2=O Carão
TTITLE3=Vou Na Maré, Vou No Mar
TTITLE4=ABC e Mourão Trocado
TTITLE5=O Pobre e o Rico
EXTD=
EXTT0=
EXTT1=
EXTT2=
EXTT3=
EXTT4=
EXTT5=
PLAYORDER=
